<svg width="22" height="22" xmlns="http://www.w3.org/2000/svg">
 <defs>
  <clipPath>
   <path id="svg_1" d="m-7,1024.36l34,0l0,34l-34,0l0,-34z" fill-opacity="0.514" fill="#00f"/>
  </clipPath>
  <clipPath>
   <path id="svg_2" d="m-6,1028.36l32,0l0,32l-32,0l0,-32z" fill-opacity="0.472" fill="#aade87"/>
  </clipPath>
 </defs>
 <g>
  <title>Layer 1</title>
  <path transform="rotate(90 10.9965 11.0031)" opacity="0.9" id="svg_3" fill="#ffffff" d="m15.24431,11.76704l-6.85455,6.90471c-0.43602,0.43945 -1.14557,0.44206 -1.5846,0.00582c-0.43906,-0.43585 -0.44167,-1.14536 -0.00582,-1.58438l6.06498,-6.10968l-6.10968,-6.06463c-0.43906,-0.43603 -0.44167,-1.14547 -0.00582,-1.58453c0.43585,-0.43924 1.14536,-0.44184 1.5846,-0.00582l6.90506,6.8542c0.21953,0.21803 0.32982,0.50413 0.33087,0.79078c0.00105,0.28679 -0.10735,0.5739 -0.32524,0.79343"/>
 </g>
</svg>